ffmpeg started on 2025-04-30 at 17:27:40
Report written to "D:\Convert\FFMetrics\reports\psnr_report-6.txt"
Log level: 32
Command line:
ffmpeg -hide_banner -nostdin -i "G:\\\xc0\xed\xe8\xec\xe5\\\xce\xed\xe3\xee\xe8\xed\xe3\xe8\\!_37_\xc7\xe8\xec\xe0_2025\\JamClub\\\xcf\xee\xe4\xed\xff\xf2\xe8\xe5 \xf3\xf0\xee\xe2\xed\xff \xe2 \xee\xe4\xe8\xed\xee\xf7\xea\xf3\\\xd2\xc2-2\\JamClub_Ore_dake_Level_Up_na_Ken_Season_2_04_1080p_HEVC.mkv" -i "G:\\\xc0\xed\xe8\xec\xe5\\\xce\xed\xe3\xee\xe8\xed\xe3\xe8\\!_37_\xc7\xe8\xec\xe0_2025\\JamClub\\\xcf\xee\xe4\xed\xff\xf2\xe8\xe5 \xf3\xf0\xee\xe2\xed\xff \xe2 \xee\xe4\xe8\xed\xee\xf7\xea\xf3\\\xd2\xc2-2\\JamClub_Ore_dake_Level_Up_na_Ken_Season_2_04_1080p.mp4" -lavfi "[0:v]settb=AVTB,setpts=PTS-STARTPTS,format=pix_fmts=yuv420p10,fps=24000/1001,scale=1920:1080:flags=bicubic[main];[1:v]settb=AVTB,setpts=PTS-STARTPTS,format=pix_fmts=yuv420p,fps=24000/1001,scale=1920:1080:flags=bicubic[ref];[main][ref]psnr=eof_action=endall:stats_file='D\\:/Convert/FFMetrics/logs/psnr_logfile-6.txt'" -f null -
Input #0, matroska,webm, from 'G:\Аниме\Онгоинги\!_37_Зима_2025\JamClub\Поднятие уровня в одиночку\ТВ-2\JamClub_Ore_dake_Level_Up_na_Ken_Season_2_04_1080p_HEVC.mkv':
  Metadata:
    COMPATIBLE_BRANDS: isomiso2avc1mp41
    MAJOR_BRAND     : isom
    MINOR_VERSION   : 512
    ENCODER         : Lavf61.7.100
  Duration: 00:24:02.26, start: -0.001000, bitrate: 1305 kb/s
  Stream #0:0: Video: hevc (Main 10), yuv420p10le(tv, bt709, progressive), 1920x1080 [SAR 1:1 DAR 16:9], 23.98 fps, 23.98 tbr, 1k tbn (default)
      Metadata:
        HANDLER_NAME    : VideoHandler
        VENDOR_ID       : [0][0][0][0]
        ENCODER         : Lavc61.19.100 libx265
        BPS             : 1105199
        DURATION        : 00:24:02.190708333
        NUMBER_OF_FRAMES: 34578
        NUMBER_OF_BYTES : 199238503
        _STATISTICS_WRITING_APP: mkvpropedit v66.0.0 ('Josie') 64-bit
        _STATISTICS_WRITING_DATE_UTC: 2025-04-30 07:57:20
        _STATISTICS_TAGS: BPS DURATION NUMBER_OF_FRAMES NUMBER_OF_BYTES
  Stream #0:1(eng): Audio: aac (LC), 48000 Hz, stereo, fltp (default)
      Metadata:
        HANDLER_NAME    : SoundHandler
        VENDOR_ID       : [0][0][0][0]
        ENCODER         : Lavc61.19.100 aac
        BPS             : 196187
        DURATION        : 00:24:02.221000000
        NUMBER_OF_FRAMES: 67605
        NUMBER_OF_BYTES : 35368200
        _STATISTICS_WRITING_APP: mkvpropedit v66.0.0 ('Josie') 64-bit
        _STATISTICS_WRITING_DATE_UTC: 2025-04-30 07:57:20
        _STATISTICS_TAGS: BPS DURATION NUMBER_OF_FRAMES NUMBER_OF_BYTES
Input #1, mov,mp4,m4a,3gp,3g2,mj2, from 'G:\Аниме\Онгоинги\!_37_Зима_2025\JamClub\Поднятие уровня в одиночку\ТВ-2\JamClub_Ore_dake_Level_Up_na_Ken_Season_2_04_1080p.mp4':
  Metadata:
    major_brand     : isom
    minor_version   : 512
    compatible_brands: isomiso2avc1mp41
    encoder         : Lavf60.16.100
  Duration: 00:24:02.24, start: 0.000000, bitrate: 4306 kb/s
  Stream #1:0[0x1](und): Video: h264 (High) (avc1 / 0x31637661), yuv420p(progressive), 1920x1080 [SAR 1:1 DAR 16:9], 4108 kb/s, 23.98 fps, 23.98 tbr, 90k tbn (default)
      Metadata:
        handler_name    : VideoHandler
        vendor_id       : [0][0][0][0]
  Stream #1:1[0x2](eng): Audio: aac (LC) (mp4a / 0x6134706D), 48000 Hz, stereo, fltp, 191 kb/s (default)
      Metadata:
        handler_name    : SoundHandler
        vendor_id       : [0][0][0][0]
Stream mapping:
  Stream #0:0 (hevc) -> settb:default
  Stream #1:0 (h264) -> settb:default
  psnr:default -> Stream #0:0 (wrapped_avframe)
  Stream #0:1 -> #0:1 (aac (native) -> pcm_s16le (native))
Output #0, null, to 'pipe:':
  Metadata:
    COMPATIBLE_BRANDS: isomiso2avc1mp41
    MAJOR_BRAND     : isom
    MINOR_VERSION   : 512
    encoder         : Lavf61.7.100
  Stream #0:0: Video: wrapped_avframe, yuv420p10le(tv, bt709, progressive), 1920x1080 [SAR 1:1 DAR 16:9], q=2-31, 200 kb/s, 23.98 fps, 23.98 tbn
      Metadata:
        encoder         : Lavc61.19.100 wrapped_avframe
  Stream #0:1(eng): Audio: pcm_s16le, 48000 Hz, stereo, s16, 1536 kb/s (default)
      Metadata:
        HANDLER_NAME    : SoundHandler
        VENDOR_ID       : [0][0][0][0]
        _STATISTICS_TAGS: BPS DURATION NUMBER_OF_FRAMES NUMBER_OF_BYTES
        BPS             : 196187
        DURATION        : 00:24:02.221000000
        NUMBER_OF_FRAMES: 67605
        NUMBER_OF_BYTES : 35368200
        _STATISTICS_WRITING_APP: mkvpropedit v66.0.0 ('Josie') 64-bit
        _STATISTICS_WRITING_DATE_UTC: 2025-04-30 07:57:20
        encoder         : Lavc61.19.100 pcm_s16le
frame=  115 fps=0.0 q=-0.0 size=N/A time=00:00:04.79 bitrate=N/A speed=9.06x    frame=  270 fps=259 q=-0.0 size=N/A time=00:00:11.26 bitrate=N/A speed=10.8x    frame=  459 fps=296 q=-0.0 size=N/A time=00:00:19.14 bitrate=N/A speed=12.3x    frame=  688 fps=331 q=-0.0 size=N/A time=00:00:28.69 bitrate=N/A speed=13.8x    frame=  900 fps=349 q=-0.0 size=N/A time=00:00:37.53 bitrate=N/A speed=14.5x    frame= 1153 fps=371 q=-0.0 size=N/A time=00:00:48.08 bitrate=N/A speed=15.5x    frame= 1420 fps=392 q=-0.0 size=N/A time=00:00:59.22 bitrate=N/A speed=16.4x    frame= 1675 fps=406 q=-0.0 size=N/A time=00:01:09.86 bitrate=N/A speed=16.9x    frame= 1878 fps=403 q=-0.0 size=N/A time=00:01:18.32 bitrate=N/A speed=16.8x    frame= 2063 fps=400 q=-0.0 size=N/A time=00:01:26.04 bitrate=N/A speed=16.7x    frame= 2266 fps=399 q=-0.0 size=N/A time=00:01:34.51 bitrate=N/A speed=16.6x    frame= 2453 fps=396 q=-0.0 size=N/A time=00:01:42.31 bitrate=N/A speed=16.5x    frame= 2625 fps=391 q=-0.0 size=N/A time=00:01:49.48 bitrate=N/A speed=16.3x    frame= 2783 fps=386 q=-0.0 size=N/A time=00:01:56.07 bitrate=N/A speed=16.1x    frame= 2956 fps=382 q=-0.0 size=N/A time=00:02:03.28 bitrate=N/A speed=15.9x    frame= 3151 fps=381 q=-0.0 size=N/A time=00:02:11.42 bitrate=N/A speed=15.9x    frame= 3298 fps=376 q=-0.0 size=N/A time=00:02:17.55 bitrate=N/A speed=15.7x    frame= 3479 fps=374 q=-0.0 size=N/A time=00:02:25.10 bitrate=N/A speed=15.6x    frame= 3623 fps=370 q=-0.0 size=N/A time=00:02:31.10 bitrate=N/A speed=15.4x    frame= 3807 fps=369 q=-0.0 size=N/A time=00:02:38.78 bitrate=N/A speed=15.4x    frame= 4009 fps=370 q=-0.0 size=N/A time=00:02:47.20 bitrate=N/A speed=15.4x    frame= 4236 fps=373 q=-0.0 size=N/A time=00:02:56.67 bitrate=N/A speed=15.6x    frame= 4482 fps=377 q=-0.0 size=N/A time=00:03:06.93 bitrate=N/A speed=15.7x    frame= 4737 fps=382 q=-0.0 size=N/A time=00:03:17.57 bitrate=N/A speed=15.9x    frame= 4973 fps=385 q=-0.0 size=N/A time=00:03:27.41 bitrate=N/A speed=16.1x    frame= 5237 fps=390 q=-0.0 size=N/A time=00:03:38.42 bitrate=N/A speed=16.3x    frame= 5464 fps=392 q=-0.0 size=N/A time=00:03:47.89 bitrate=N/A speed=16.3x    frame= 5718 fps=395 q=-0.0 size=N/A time=00:03:58.48 bitrate=N/A speed=16.5x    frame= 5987 fps=400 q=-0.0 size=N/A time=00:04:09.70 bitrate=N/A speed=16.7x    frame= 6241 fps=403 q=-0.0 size=N/A time=00:04:20.34 bitrate=N/A speed=16.8x    frame= 6500 fps=406 q=-0.0 size=N/A time=00:04:31.10 bitrate=N/A speed=16.9x    frame= 6748 fps=408 q=-0.0 size=N/A time=00:04:41.44 bitrate=N/A speed=  17x    frame= 7004 fps=411 q=-0.0 size=N/A time=00:04:52.12 bitrate=N/A speed=17.2x    frame= 7263 fps=414 q=-0.0 size=N/A time=00:05:02.92 bitrate=N/A speed=17.3x    frame= 7515 fps=416 q=-0.0 size=N/A time=00:05:13.43 bitrate=N/A speed=17.3x    frame= 7778 fps=418 q=-0.0 size=N/A time=00:05:24.40 bitrate=N/A speed=17.5x    frame= 8053 fps=422 q=-0.0 size=N/A time=00:05:35.87 bitrate=N/A speed=17.6x    frame= 8331 fps=425 q=-0.0 size=N/A time=00:05:47.47 bitrate=N/A speed=17.7x    frame= 8604 fps=427 q=-0.0 size=N/A time=00:05:58.85 bitrate=N/A speed=17.8x    frame= 8851 fps=429 q=-0.0 size=N/A time=00:06:09.16 bitrate=N/A speed=17.9x    frame= 9092 fps=430 q=-0.0 size=N/A time=00:06:19.21 bitrate=N/A speed=17.9x    frame= 9378 fps=432 q=-0.0 size=N/A time=00:06:31.14 bitrate=N/A speed=  18x    frame= 9642 fps=434 q=-0.0 size=N/A time=00:06:42.15 bitrate=N/A speed=18.1x    frame= 9907 fps=436 q=-0.0 size=N/A time=00:06:53.20 bitrate=N/A speed=18.2x    frame=10180 fps=438 q=-0.0 size=N/A time=00:07:04.59 bitrate=N/A speed=18.3x    frame=10438 fps=440 q=-0.0 size=N/A time=00:07:15.35 bitrate=N/A speed=18.3x    frame=10693 fps=441 q=-0.0 size=N/A time=00:07:25.98 bitrate=N/A speed=18.4x    frame=10948 fps=442 q=-0.0 size=N/A time=00:07:36.62 bitrate=N/A speed=18.4x    frame=11199 fps=443 q=-0.0 size=N/A time=00:07:47.09 bitrate=N/A speed=18.5x    frame=11440 fps=443 q=-0.0 size=N/A time=00:07:57.14 bitrate=N/A speed=18.5x    frame=11701 fps=445 q=-0.0 size=N/A time=00:08:08.02 bitrate=N/A speed=18.5x    frame=11955 fps=446 q=-0.0 size=N/A time=00:08:18.62 bitrate=N/A speed=18.6x    frame=12226 fps=447 q=-0.0 size=N/A time=00:08:29.92 bitrate=N/A speed=18.6x    frame=12499 fps=448 q=-0.0 size=N/A time=00:08:41.31 bitrate=N/A speed=18.7x    frame=12785 fps=450 q=-0.0 size=N/A time=00:08:53.24 bitrate=N/A speed=18.8x    frame=13056 fps=452 q=-0.0 size=N/A time=00:09:04.54 bitrate=N/A speed=18.8x    frame=13331 fps=453 q=-0.0 size=N/A time=00:09:16.01 bitrate=N/A speed=18.9x    frame=13597 fps=454 q=-0.0 size=N/A time=00:09:27.10 bitrate=N/A speed=  19x    frame=13867 fps=455 q=-0.0 size=N/A time=00:09:38.36 bitrate=N/A speed=  19x    frame=14142 fps=457 q=-0.0 size=N/A time=00:09:49.83 bitrate=N/A speed=19.1x    frame=14430 fps=458 q=-0.0 size=N/A time=00:10:01.85 bitrate=N/A speed=19.1x    frame=14709 fps=460 q=-0.0 size=N/A time=00:10:13.48 bitrate=N/A speed=19.2x    frame=14990 fps=461 q=-0.0 size=N/A time=00:10:25.20 bitrate=N/A speed=19.2x    frame=15193 fps=460 q=-0.0 size=N/A time=00:10:33.67 bitrate=N/A speed=19.2x    frame=15434 fps=460 q=-0.0 size=N/A time=00:10:43.72 bitrate=N/A speed=19.2x    frame=15717 fps=461 q=-0.0 size=N/A time=00:10:55.52 bitrate=N/A speed=19.2x    frame=15998 fps=463 q=-0.0 size=N/A time=00:11:07.24 bitrate=N/A speed=19.3x    frame=16272 fps=464 q=-0.0 size=N/A time=00:11:18.67 bitrate=N/A speed=19.3x    frame=16496 fps=463 q=-0.0 size=N/A time=00:11:28.02 bitrate=N/A speed=19.3x    frame=16690 fps=462 q=-0.0 size=N/A time=00:11:36.11 bitrate=N/A speed=19.3x    frame=16918 fps=462 q=-0.0 size=N/A time=00:11:45.62 bitrate=N/A speed=19.3x    frame=17197 fps=463 q=-0.0 size=N/A time=00:11:57.25 bitrate=N/A speed=19.3x    frame=17466 fps=464 q=-0.0 size=N/A time=00:12:08.47 bitrate=N/A speed=19.3x    frame=17738 fps=465 q=-0.0 size=N/A time=00:12:19.82 bitrate=N/A speed=19.4x    frame=18007 fps=465 q=-0.0 size=N/A time=00:12:31.04 bitrate=N/A speed=19.4x    frame=18296 fps=467 q=-0.0 size=N/A time=00:12:43.09 bitrate=N/A speed=19.5x    frame=18560 fps=467 q=-0.0 size=N/A time=00:12:54.10 bitrate=N/A speed=19.5x    frame=18841 fps=468 q=-0.0 size=N/A time=00:13:05.82 bitrate=N/A speed=19.5x    frame=19121 fps=469 q=-0.0 size=N/A time=00:13:17.50 bitrate=N/A speed=19.6x    frame=19376 fps=469 q=-0.0 size=N/A time=00:13:28.14 bitrate=N/A speed=19.6x    frame=19605 fps=469 q=-0.0 size=N/A time=00:13:37.69 bitrate=N/A speed=19.6x    frame=19805 fps=468 q=-0.0 size=N/A time=00:13:46.03 bitrate=N/A speed=19.5x    frame=20072 fps=469 q=-0.0 size=N/A time=00:13:57.16 bitrate=N/A speed=19.5x    frame=20347 fps=469 q=-0.0 size=N/A time=00:14:08.63 bitrate=N/A speed=19.6x    frame=20613 fps=470 q=-0.0 size=N/A time=00:14:19.73 bitrate=N/A speed=19.6x    frame=20877 fps=470 q=-0.0 size=N/A time=00:14:30.74 bitrate=N/A speed=19.6x    frame=21145 fps=471 q=-0.0 size=N/A time=00:14:41.92 bitrate=N/A speed=19.6x    frame=21364 fps=471 q=-0.0 size=N/A time=00:14:51.05 bitrate=N/A speed=19.6x    frame=21577 fps=470 q=-0.0 size=N/A time=00:14:59.94 bitrate=N/A speed=19.6x    frame=21805 fps=469 q=-0.0 size=N/A time=00:15:09.45 bitrate=N/A speed=19.6x    frame=22013 fps=469 q=-0.0 size=N/A time=00:15:18.12 bitrate=N/A speed=19.6x    frame=22255 fps=469 q=-0.0 size=N/A time=00:15:28.21 bitrate=N/A speed=19.5x    frame=22493 fps=469 q=-0.0 size=N/A time=00:15:38.14 bitrate=N/A speed=19.5x    frame=22712 fps=468 q=-0.0 size=N/A time=00:15:47.27 bitrate=N/A speed=19.5x    frame=22987 fps=469 q=-0.0 size=N/A time=00:15:58.74 bitrate=N/A speed=19.6x    frame=23259 fps=469 q=-0.0 size=N/A time=00:16:10.09 bitrate=N/A speed=19.6x    frame=23494 fps=469 q=-0.0 size=N/A time=00:16:19.89 bitrate=N/A speed=19.6x    frame=23761 fps=470 q=-0.0 size=N/A time=00:16:31.03 bitrate=N/A speed=19.6x    frame=24040 fps=471 q=-0.0 size=N/A time=00:16:42.66 bitrate=N/A speed=19.6x    frame=24329 fps=471 q=-0.0 size=N/A time=00:16:54.72 bitrate=N/A speed=19.7x    frame=24597 fps=472 q=-0.0 size=N/A time=00:17:05.89 bitrate=N/A speed=19.7x    frame=24829 fps=472 q=-0.0 size=N/A time=00:17:15.57 bitrate=N/A speed=19.7x    frame=25080 fps=472 q=-0.0 size=N/A time=00:17:26.04 bitrate=N/A speed=19.7x    frame=25295 fps=471 q=-0.0 size=N/A time=00:17:35.01 bitrate=N/A speed=19.7x    frame=25493 fps=471 q=-0.0 size=N/A time=00:17:43.27 bitrate=N/A speed=19.6x    frame=25728 fps=470 q=-0.0 size=N/A time=00:17:53.07 bitrate=N/A speed=19.6x    frame=25912 fps=469 q=-0.0 size=N/A time=00:18:00.74 bitrate=N/A speed=19.6x    frame=26146 fps=469 q=-0.0 size=N/A time=00:18:10.50 bitrate=N/A speed=19.6x    frame=26372 fps=469 q=-0.0 size=N/A time=00:18:19.93 bitrate=N/A speed=19.6x    frame=26568 fps=468 q=-0.0 size=N/A time=00:18:28.10 bitrate=N/A speed=19.5x    frame=26757 fps=467 q=-0.0 size=N/A time=00:18:35.98 bitrate=N/A speed=19.5x    frame=26975 fps=467 q=-0.0 size=N/A time=00:18:45.08 bitrate=N/A speed=19.5x    frame=27191 fps=466 q=-0.0 size=N/A time=00:18:54.09 bitrate=N/A speed=19.5x    frame=27458 fps=467 q=-0.0 size=N/A time=00:19:05.22 bitrate=N/A speed=19.5x    frame=27690 fps=467 q=-0.0 size=N/A time=00:19:14.90 bitrate=N/A speed=19.5x    frame=27899 fps=466 q=-0.0 size=N/A time=00:19:23.62 bitrate=N/A speed=19.4x    frame=28077 fps=465 q=-0.0 size=N/A time=00:19:31.04 bitrate=N/A speed=19.4x    frame=28304 fps=465 q=-0.0 size=N/A time=00:19:40.51 bitrate=N/A speed=19.4x    frame=28539 fps=465 q=-0.0 size=N/A time=00:19:50.31 bitrate=N/A speed=19.4x    frame=28737 fps=464 q=-0.0 size=N/A time=00:19:58.57 bitrate=N/A speed=19.4x    frame=28940 fps=464 q=-0.0 size=N/A time=00:20:07.03 bitrate=N/A speed=19.3x    frame=29184 fps=464 q=-0.0 size=N/A time=00:20:17.21 bitrate=N/A speed=19.3x    frame=29464 fps=464 q=-0.0 size=N/A time=00:20:28.89 bitrate=N/A speed=19.4x    frame=29711 fps=464 q=-0.0 size=N/A time=00:20:39.19 bitrate=N/A speed=19.4x    frame=29972 fps=465 q=-0.0 size=N/A time=00:20:50.08 bitrate=N/A speed=19.4x    frame=30224 fps=465 q=-0.0 size=N/A time=00:21:00.59 bitrate=N/A speed=19.4x    frame=30436 fps=465 q=-0.0 size=N/A time=00:21:09.43 bitrate=N/A speed=19.4x    frame=30654 fps=464 q=-0.0 size=N/A time=00:21:18.52 bitrate=N/A speed=19.4x    frame=30902 fps=464 q=-0.0 size=N/A time=00:21:28.87 bitrate=N/A speed=19.4x    frame=31145 fps=464 q=-0.0 size=N/A time=00:21:39.00 bitrate=N/A speed=19.4x    frame=31324 fps=463 q=-0.0 size=N/A time=00:21:46.47 bitrate=N/A speed=19.3x    frame=31562 fps=463 q=-0.0 size=N/A time=00:21:56.39 bitrate=N/A speed=19.3x    frame=31801 fps=463 q=-0.0 size=N/A time=00:22:06.36 bitrate=N/A speed=19.3x    frame=32063 fps=464 q=-0.0 size=N/A time=00:22:17.29 bitrate=N/A speed=19.3x    frame=32300 fps=464 q=-0.0 size=N/A time=00:22:27.17 bitrate=N/A speed=19.3x    frame=32493 fps=463 q=-0.0 size=N/A time=00:22:35.22 bitrate=N/A speed=19.3x    frame=32705 fps=463 q=-0.0 size=N/A time=00:22:44.07 bitrate=N/A speed=19.3x    frame=32931 fps=463 q=-0.0 size=N/A time=00:22:53.49 bitrate=N/A speed=19.3x    frame=33141 fps=462 q=-0.0 size=N/A time=00:23:02.25 bitrate=N/A speed=19.3x    frame=33356 fps=462 q=-0.0 size=N/A time=00:23:11.22 bitrate=N/A speed=19.3x    frame=33531 fps=461 q=-0.0 size=N/A time=00:23:18.52 bitrate=N/A speed=19.2x    frame=33692 fps=460 q=-0.0 size=N/A time=00:23:25.23 bitrate=N/A speed=19.2x    frame=33874 fps=459 q=-0.0 size=N/A time=00:23:32.82 bitrate=N/A speed=19.2x    frame=34063 fps=459 q=-0.0 size=N/A time=00:23:40.71 bitrate=N/A speed=19.1x    frame=34271 fps=458 q=-0.0 size=N/A time=00:23:49.38 bitrate=N/A speed=19.1x    frame=34473 fps=458 q=-0.0 size=N/A time=00:23:57.81 bitrate=N/A speed=19.1x    [Parsed_psnr_10 @ 000001eafdb7fa40] PSNR y:48.565586 u:49.967332 v:50.293813 average:49.026502 min:37.141971 max:inf
[out#0/null @ 000001eaf228fe00] video:14858KiB audio:270420KiB subtitle:0KiB other streams:0KiB global headers:0KiB muxing overhead: unknown
frame=34578 fps=457 q=-0.0 Lsize=N/A time=00:24:02.19 bitrate=N/A speed=19.1x    
